<mxfile host="app.diagrams.net" modified="2023-03-14T07:35:59.822Z" agent="5.0 (Windows NT 10.0; Win64; x64) AppleWebKit/537.36 (KHTML, like Gecko) Chrome/111.0.0.0 Safari/537.36" etag="Gye_QvHsAK-vCkxgk5y3" version="20.8.20" type="github">
  <diagram name="Page-1" id="84iuYeVSeZIkKYVab8Eo">
    <mxGraphModel dx="1285" dy="606" grid="1" gridSize="10" guides="1" tooltips="1" connect="1" arrows="1" fold="1" page="1" pageScale="1" pageWidth="850" pageHeight="1100" math="0" shadow="0">
      <root>
        <mxCell id="0" />
        <mxCell id="1" parent="0" />
        <mxCell id="GTyCWfhpBAxhGbGqkGNu-2" value="Citizen" style="html=1;" vertex="1" parent="1">
          <mxGeometry x="40" y="45" width="110" height="50" as="geometry" />
        </mxCell>
        <mxCell id="GTyCWfhpBAxhGbGqkGNu-3" value="Supervisor" style="html=1;" vertex="1" parent="1">
          <mxGeometry x="40" y="140" width="110" height="50" as="geometry" />
        </mxCell>
        <mxCell id="GTyCWfhpBAxhGbGqkGNu-4" value="Admin" style="html=1;" vertex="1" parent="1">
          <mxGeometry x="40" y="240" width="110" height="50" as="geometry" />
        </mxCell>
        <mxCell id="GTyCWfhpBAxhGbGqkGNu-5" value="Complaint" style="html=1;" vertex="1" parent="1">
          <mxGeometry x="40" y="340" width="110" height="50" as="geometry" />
        </mxCell>
        <mxCell id="GTyCWfhpBAxhGbGqkGNu-6" value="Project" style="html=1;" vertex="1" parent="1">
          <mxGeometry x="40" y="520" width="110" height="50" as="geometry" />
        </mxCell>
        <mxCell id="GTyCWfhpBAxhGbGqkGNu-7" value="Resource" style="html=1;" vertex="1" parent="1">
          <mxGeometry x="40" y="610" width="110" height="50" as="geometry" />
        </mxCell>
        <mxCell id="GTyCWfhpBAxhGbGqkGNu-8" value="Repair" style="html=1;" vertex="1" parent="1">
          <mxGeometry x="40" y="710" width="110" height="50" as="geometry" />
        </mxCell>
        <mxCell id="GTyCWfhpBAxhGbGqkGNu-9" value="Scheduler" style="html=1;" vertex="1" parent="1">
          <mxGeometry x="40" y="800" width="110" height="50" as="geometry" />
        </mxCell>
        <mxCell id="GTyCWfhpBAxhGbGqkGNu-10" value="Login" style="rounded=1;whiteSpace=wrap;html=1;arcSize=40;fontColor=#000000;fillColor=#ffffc0;strokeColor=#ff0000;" vertex="1" parent="1">
          <mxGeometry x="230" y="45" width="120" height="40" as="geometry" />
        </mxCell>
        <mxCell id="GTyCWfhpBAxhGbGqkGNu-13" value="" style="ellipse;html=1;shape=startState;fillColor=#000000;strokeColor=#ff0000;" vertex="1" parent="1">
          <mxGeometry x="110" y="10" width="30" height="30" as="geometry" />
        </mxCell>
        <mxCell id="GTyCWfhpBAxhGbGqkGNu-16" value="" style="edgeStyle=orthogonalEdgeStyle;html=1;verticalAlign=bottom;endArrow=open;endSize=8;strokeColor=#ff0000;rounded=0;exitX=1;exitY=0;exitDx=0;exitDy=0;" edge="1" source="GTyCWfhpBAxhGbGqkGNu-13" parent="1" target="GTyCWfhpBAxhGbGqkGNu-19">
          <mxGeometry relative="1" as="geometry">
            <mxPoint x="185" y="14" as="targetPoint" />
            <mxPoint x="250" y="25" as="sourcePoint" />
          </mxGeometry>
        </mxCell>
        <mxCell id="GTyCWfhpBAxhGbGqkGNu-18" value="" style="edgeStyle=orthogonalEdgeStyle;html=1;verticalAlign=bottom;endArrow=open;endSize=8;strokeColor=#ff0000;rounded=0;exitX=1;exitY=0.5;exitDx=0;exitDy=0;entryX=0;entryY=0.5;entryDx=0;entryDy=0;" edge="1" parent="1" source="GTyCWfhpBAxhGbGqkGNu-10" target="GTyCWfhpBAxhGbGqkGNu-27">
          <mxGeometry relative="1" as="geometry">
            <mxPoint x="470" y="370" as="targetPoint" />
            <mxPoint x="280" y="140" as="sourcePoint" />
            <Array as="points">
              <mxPoint x="450" y="65" />
              <mxPoint x="450" y="370" />
            </Array>
          </mxGeometry>
        </mxCell>
        <mxCell id="GTyCWfhpBAxhGbGqkGNu-19" value="" style="shape=line;html=1;strokeWidth=6;strokeColor=#ff0000;rotation=-90;" vertex="1" parent="1">
          <mxGeometry x="52.5" y="157.5" width="275" height="10" as="geometry" />
        </mxCell>
        <mxCell id="GTyCWfhpBAxhGbGqkGNu-20" value="" style="edgeStyle=orthogonalEdgeStyle;html=1;verticalAlign=bottom;endArrow=open;endSize=8;strokeColor=#ff0000;rounded=0;exitX=0.855;exitY=0.649;exitDx=0;exitDy=0;exitPerimeter=0;entryX=0;entryY=0.5;entryDx=0;entryDy=0;" edge="1" source="GTyCWfhpBAxhGbGqkGNu-19" parent="1" target="GTyCWfhpBAxhGbGqkGNu-10">
          <mxGeometry relative="1" as="geometry">
            <mxPoint x="320" y="65" as="targetPoint" />
          </mxGeometry>
        </mxCell>
        <mxCell id="GTyCWfhpBAxhGbGqkGNu-21" value="Login" style="rounded=1;whiteSpace=wrap;html=1;arcSize=40;fontColor=#000000;fillColor=#ffffc0;strokeColor=#ff0000;" vertex="1" parent="1">
          <mxGeometry x="230" y="140" width="120" height="40" as="geometry" />
        </mxCell>
        <mxCell id="GTyCWfhpBAxhGbGqkGNu-22" value="" style="edgeStyle=orthogonalEdgeStyle;html=1;verticalAlign=bottom;endArrow=open;endSize=8;strokeColor=#ff0000;rounded=0;exitX=1;exitY=0.5;exitDx=0;exitDy=0;entryX=0;entryY=0.5;entryDx=0;entryDy=0;" edge="1" source="GTyCWfhpBAxhGbGqkGNu-21" parent="1" target="GTyCWfhpBAxhGbGqkGNu-32">
          <mxGeometry relative="1" as="geometry">
            <mxPoint x="430" y="160" as="targetPoint" />
            <Array as="points" />
          </mxGeometry>
        </mxCell>
        <mxCell id="GTyCWfhpBAxhGbGqkGNu-23" value="" style="edgeStyle=orthogonalEdgeStyle;html=1;verticalAlign=bottom;endArrow=open;endSize=8;strokeColor=#ff0000;rounded=0;exitX=0.47;exitY=0.789;exitDx=0;exitDy=0;exitPerimeter=0;entryX=0;entryY=0.75;entryDx=0;entryDy=0;" edge="1" parent="1" source="GTyCWfhpBAxhGbGqkGNu-19" target="GTyCWfhpBAxhGbGqkGNu-21">
          <mxGeometry relative="1" as="geometry">
            <mxPoint x="240" y="75" as="targetPoint" />
            <mxPoint x="200" y="75" as="sourcePoint" />
          </mxGeometry>
        </mxCell>
        <mxCell id="GTyCWfhpBAxhGbGqkGNu-24" value="" style="edgeStyle=orthogonalEdgeStyle;html=1;verticalAlign=bottom;endArrow=open;endSize=8;strokeColor=#ff0000;rounded=0;entryX=0;entryY=0.75;entryDx=0;entryDy=0;exitX=0.143;exitY=0.86;exitDx=0;exitDy=0;exitPerimeter=0;" edge="1" parent="1" source="GTyCWfhpBAxhGbGqkGNu-19" target="GTyCWfhpBAxhGbGqkGNu-25">
          <mxGeometry relative="1" as="geometry">
            <mxPoint x="250" y="85" as="targetPoint" />
            <mxPoint x="210" y="85" as="sourcePoint" />
            <Array as="points">
              <mxPoint x="240" y="260" />
            </Array>
          </mxGeometry>
        </mxCell>
        <mxCell id="GTyCWfhpBAxhGbGqkGNu-25" value="Login" style="rounded=1;whiteSpace=wrap;html=1;arcSize=40;fontColor=#000000;fillColor=#ffffc0;strokeColor=#ff0000;" vertex="1" parent="1">
          <mxGeometry x="240" y="230" width="120" height="40" as="geometry" />
        </mxCell>
        <mxCell id="GTyCWfhpBAxhGbGqkGNu-26" value="" style="edgeStyle=orthogonalEdgeStyle;html=1;verticalAlign=bottom;endArrow=open;endSize=8;strokeColor=#ff0000;rounded=0;exitX=1;exitY=0.5;exitDx=0;exitDy=0;entryX=0.5;entryY=0;entryDx=0;entryDy=0;" edge="1" source="GTyCWfhpBAxhGbGqkGNu-25" parent="1" target="GTyCWfhpBAxhGbGqkGNu-38">
          <mxGeometry relative="1" as="geometry">
            <mxPoint x="420" y="250" as="targetPoint" />
            <Array as="points">
              <mxPoint x="420" y="250" />
            </Array>
          </mxGeometry>
        </mxCell>
        <mxCell id="GTyCWfhpBAxhGbGqkGNu-27" value="Add Complaint" style="rounded=1;whiteSpace=wrap;html=1;arcSize=40;fontColor=#000000;fillColor=#ffffc0;strokeColor=#ff0000;" vertex="1" parent="1">
          <mxGeometry x="480" y="350" width="120" height="40" as="geometry" />
        </mxCell>
        <mxCell id="GTyCWfhpBAxhGbGqkGNu-28" value="" style="edgeStyle=orthogonalEdgeStyle;html=1;verticalAlign=bottom;endArrow=open;endSize=8;strokeColor=#ff0000;rounded=0;exitX=1;exitY=0.5;exitDx=0;exitDy=0;entryX=0;entryY=0.5;entryDx=0;entryDy=0;" edge="1" source="GTyCWfhpBAxhGbGqkGNu-27" parent="1" target="GTyCWfhpBAxhGbGqkGNu-40">
          <mxGeometry relative="1" as="geometry">
            <mxPoint x="660" y="370" as="targetPoint" />
            <Array as="points" />
          </mxGeometry>
        </mxCell>
        <mxCell id="GTyCWfhpBAxhGbGqkGNu-29" value="Update Area-Wise List" style="rounded=1;whiteSpace=wrap;html=1;arcSize=40;fontColor=#000000;fillColor=#ffffc0;strokeColor=#ff0000;" vertex="1" parent="1">
          <mxGeometry x="710" y="420" width="120" height="40" as="geometry" />
        </mxCell>
        <mxCell id="GTyCWfhpBAxhGbGqkGNu-30" value="" style="edgeStyle=orthogonalEdgeStyle;html=1;verticalAlign=bottom;endArrow=open;endSize=8;strokeColor=#ff0000;rounded=0;entryX=1;entryY=0.75;entryDx=0;entryDy=0;" edge="1" parent="1" target="GTyCWfhpBAxhGbGqkGNu-32">
          <mxGeometry relative="1" as="geometry">
            <mxPoint x="810" y="500" as="targetPoint" />
            <mxPoint x="810" y="420" as="sourcePoint" />
            <Array as="points">
              <mxPoint x="811" y="320" />
              <mxPoint x="810" y="320" />
              <mxPoint x="810" y="170" />
            </Array>
          </mxGeometry>
        </mxCell>
        <mxCell id="GTyCWfhpBAxhGbGqkGNu-31" value="Division" style="html=1;" vertex="1" parent="1">
          <mxGeometry x="40" y="430" width="110" height="50" as="geometry" />
        </mxCell>
        <mxCell id="GTyCWfhpBAxhGbGqkGNu-32" value="Generate Area-Wise&amp;nbsp;&lt;br&gt;List" style="rounded=1;whiteSpace=wrap;html=1;arcSize=40;fontColor=#000000;fillColor=#ffffc0;strokeColor=#ff0000;" vertex="1" parent="1">
          <mxGeometry x="480" y="140" width="120" height="40" as="geometry" />
        </mxCell>
        <mxCell id="GTyCWfhpBAxhGbGqkGNu-33" value="" style="edgeStyle=orthogonalEdgeStyle;html=1;verticalAlign=bottom;endArrow=open;endSize=8;strokeColor=#ff0000;rounded=0;exitX=1;exitY=0.25;exitDx=0;exitDy=0;entryX=0.5;entryY=0;entryDx=0;entryDy=0;" edge="1" source="GTyCWfhpBAxhGbGqkGNu-32" parent="1" target="GTyCWfhpBAxhGbGqkGNu-36">
          <mxGeometry relative="1" as="geometry">
            <mxPoint x="650" y="150" as="targetPoint" />
          </mxGeometry>
        </mxCell>
        <mxCell id="GTyCWfhpBAxhGbGqkGNu-36" value="Allot Resources and Priority" style="rounded=1;whiteSpace=wrap;html=1;arcSize=40;fontColor=#000000;fillColor=#ffffc0;strokeColor=#ff0000;" vertex="1" parent="1">
          <mxGeometry x="840" y="510" width="120" height="40" as="geometry" />
        </mxCell>
        <mxCell id="GTyCWfhpBAxhGbGqkGNu-37" value="" style="edgeStyle=orthogonalEdgeStyle;html=1;verticalAlign=bottom;endArrow=open;endSize=8;strokeColor=#ff0000;rounded=0;exitX=1;exitY=0.5;exitDx=0;exitDy=0;entryX=0.432;entryY=0.017;entryDx=0;entryDy=0;entryPerimeter=0;" edge="1" source="GTyCWfhpBAxhGbGqkGNu-36" parent="1" target="GTyCWfhpBAxhGbGqkGNu-42">
          <mxGeometry relative="1" as="geometry">
            <mxPoint x="970" y="690" as="targetPoint" />
          </mxGeometry>
        </mxCell>
        <mxCell id="GTyCWfhpBAxhGbGqkGNu-38" value="Update Resources" style="rounded=1;whiteSpace=wrap;html=1;arcSize=40;fontColor=#000000;fillColor=#ffffc0;strokeColor=#ff0000;" vertex="1" parent="1">
          <mxGeometry x="360" y="610" width="120" height="40" as="geometry" />
        </mxCell>
        <mxCell id="GTyCWfhpBAxhGbGqkGNu-40" value="Generate Complaint ID" style="rounded=1;whiteSpace=wrap;html=1;arcSize=40;fontColor=#000000;fillColor=#ffffc0;strokeColor=#ff0000;" vertex="1" parent="1">
          <mxGeometry x="630" y="350" width="120" height="40" as="geometry" />
        </mxCell>
        <mxCell id="GTyCWfhpBAxhGbGqkGNu-41" value="" style="edgeStyle=orthogonalEdgeStyle;html=1;verticalAlign=bottom;endArrow=open;endSize=8;strokeColor=#ff0000;rounded=0;entryX=0.5;entryY=0;entryDx=0;entryDy=0;exitX=1;exitY=0.5;exitDx=0;exitDy=0;" edge="1" source="GTyCWfhpBAxhGbGqkGNu-40" parent="1" target="GTyCWfhpBAxhGbGqkGNu-29">
          <mxGeometry relative="1" as="geometry">
            <mxPoint x="680" y="490" as="targetPoint" />
          </mxGeometry>
        </mxCell>
        <mxCell id="GTyCWfhpBAxhGbGqkGNu-42" value="Add to Pending Project List" style="rounded=1;whiteSpace=wrap;html=1;arcSize=40;fontColor=#000000;fillColor=#ffffc0;strokeColor=#ff0000;" vertex="1" parent="1">
          <mxGeometry x="920" y="715" width="120" height="40" as="geometry" />
        </mxCell>
        <mxCell id="GTyCWfhpBAxhGbGqkGNu-43" value="" style="edgeStyle=orthogonalEdgeStyle;html=1;verticalAlign=bottom;endArrow=open;endSize=8;strokeColor=#ff0000;rounded=0;entryX=0.5;entryY=0;entryDx=0;entryDy=0;" edge="1" parent="1" target="GTyCWfhpBAxhGbGqkGNu-44">
          <mxGeometry relative="1" as="geometry">
            <mxPoint x="1130" y="750" as="targetPoint" />
            <mxPoint x="1040" y="735" as="sourcePoint" />
          </mxGeometry>
        </mxCell>
        <mxCell id="GTyCWfhpBAxhGbGqkGNu-44" value="Project List Scheduled" style="rounded=1;whiteSpace=wrap;html=1;arcSize=40;fontColor=#000000;fillColor=#ffffc0;strokeColor=#ff0000;" vertex="1" parent="1">
          <mxGeometry x="1090" y="800" width="120" height="40" as="geometry" />
        </mxCell>
        <mxCell id="GTyCWfhpBAxhGbGqkGNu-45" value="" style="edgeStyle=orthogonalEdgeStyle;html=1;verticalAlign=bottom;endArrow=open;endSize=8;strokeColor=#ff0000;rounded=0;exitX=1;exitY=0.5;exitDx=0;exitDy=0;" edge="1" source="GTyCWfhpBAxhGbGqkGNu-44" parent="1">
          <mxGeometry relative="1" as="geometry">
            <mxPoint x="1220" y="550" as="targetPoint" />
          </mxGeometry>
        </mxCell>
        <mxCell id="GTyCWfhpBAxhGbGqkGNu-46" value="" style="edgeStyle=orthogonalEdgeStyle;html=1;verticalAlign=bottom;endArrow=open;endSize=8;strokeColor=#ff0000;rounded=0;exitX=1;exitY=0.5;exitDx=0;exitDy=0;entryX=0.5;entryY=0;entryDx=0;entryDy=0;" edge="1" parent="1" source="GTyCWfhpBAxhGbGqkGNu-38" target="GTyCWfhpBAxhGbGqkGNu-51">
          <mxGeometry relative="1" as="geometry">
            <mxPoint x="540" y="720" as="targetPoint" />
            <mxPoint x="1180" y="830" as="sourcePoint" />
          </mxGeometry>
        </mxCell>
        <mxCell id="GTyCWfhpBAxhGbGqkGNu-51" value="Update Project Pending List" style="rounded=1;whiteSpace=wrap;html=1;arcSize=40;fontColor=#000000;fillColor=#ffffc0;strokeColor=#ff0000;" vertex="1" parent="1">
          <mxGeometry x="480" y="700" width="120" height="40" as="geometry" />
        </mxCell>
        <mxCell id="GTyCWfhpBAxhGbGqkGNu-52" value="" style="edgeStyle=orthogonalEdgeStyle;html=1;verticalAlign=bottom;endArrow=open;endSize=8;strokeColor=#ff0000;rounded=0;exitX=0.75;exitY=1;exitDx=0;exitDy=0;entryX=0;entryY=0.5;entryDx=0;entryDy=0;" edge="1" source="GTyCWfhpBAxhGbGqkGNu-51" parent="1" target="GTyCWfhpBAxhGbGqkGNu-44">
          <mxGeometry relative="1" as="geometry">
            <mxPoint x="570" y="540" as="targetPoint" />
            <Array as="points">
              <mxPoint x="570" y="820" />
            </Array>
          </mxGeometry>
        </mxCell>
        <mxCell id="GTyCWfhpBAxhGbGqkGNu-53" value="Update Project Status" style="rounded=1;whiteSpace=wrap;html=1;arcSize=40;fontColor=#000000;fillColor=#ffffc0;strokeColor=#ff0000;" vertex="1" parent="1">
          <mxGeometry x="1155" y="510" width="120" height="40" as="geometry" />
        </mxCell>
        <mxCell id="GTyCWfhpBAxhGbGqkGNu-54" value="" style="edgeStyle=orthogonalEdgeStyle;html=1;verticalAlign=bottom;endArrow=open;endSize=8;strokeColor=#ff0000;rounded=0;exitX=1;exitY=0.5;exitDx=0;exitDy=0;" edge="1" source="GTyCWfhpBAxhGbGqkGNu-53" parent="1">
          <mxGeometry relative="1" as="geometry">
            <mxPoint x="1320" y="530" as="targetPoint" />
          </mxGeometry>
        </mxCell>
      </root>
    </mxGraphModel>
  </diagram>
</mxfile>
